:SAMPLES-PER-SECOND 30
:FULLY-SPECIFIED
:DEGREES
229
root  4.336200173 41.07177915 2.825288885 -0.6560058594 -59.41500092 -0.6110229492
lowerback  11.3100996 1.937749982 -4.126959801
upperback  2.550159931 1.957780004 -1.356559992
thorax  -3.762099981 0.9719709754 0.6290119886
lowerneck  -5.284860134 4.469830036 -6.634280205
upperneck  13.89589977 5.780099869 6.460730076
head  4.625040054 2.85800004 3.385659933
lclavicle  0 -9.442270133e-015 7.951389973e-016
lhumerus  -0.6686649919 -12.00699997 65.73529816
lradius  2.90291791e-031 -2.010450607e-031 145.2949982
lwrist  0 1.765562519e-031 18.94529915
lhand  -1.496451383e-031 -27.76390076 20.11240005
lfingers  90 7.125020027 -90
lthumb  89.89689403 5.08795885 91.16245106
rclavicle  0 -9.442270133e-015 7.951389973e-016
rhumerus  -11.09630013 9.14470005 -75.09359741
rradius  -2.668730723e-031 2.312297637e-031 139.0930023
rwrist  1.412450015e-030 -1.765562519e-031 -8.78798008
rhand  -7.920061211e-032 -33.2840004 9.303460121
rfingers  -90 -7.125020027 -90
rthumb  -92.93752616 -24.25625642 -97.11982154
rfemur  -13.90069962 13.29660034 9.808609962
rtibia  -0 0 53.94129944
rfoot  -4.436565975e-032 -5.793300152 -2.896610022
rtoes  5.373923086 19.29304026 -105.8922705
lfemur  -27.73500061 7.132520199 -9.876850128
ltibia  -0 0 53.66590118
lfoot  4.450807458e-032 -7.383100033 3.412630081
ltoes  -4.250644065 -19.5611806 -102.515957
230
root  4.308533481 41.08022254 2.774422188 -0.9669799805 -59.43900299 -0.2979736328
lowerback  11.39770031 1.948639989 -4.163609982
upperback  2.597579956 1.961770058 -1.376620054
thorax  -3.761399984 0.9728099704 0.626372993
lowerneck  -5.424660206 4.402959824 -6.713900089
upperneck  13.75039959 5.716300011 6.443160057
head  4.607019901 2.826390028 3.390919924
lclavicle  0 -9.442270133e-015 7.951389973e-016
lhumerus  -0.4465250075 -12.2517004 65.22850037
lradius  2.905021572e-031 -2.0074097e-031 145.3549957
lwrist  -7.062250077e-031 8.827812596e-032 18.70829964
lhand  -1.496451383e-031 -27.76390076 20.11240005
lfingers  90 7.125020027 -90
lthumb  89.89689403 5.08795885 91.16245106
rclavicle  0 -9.442270133e-015 7.951389973e-016
rhumerus  -10.10219955 9.203419685 -74.55950165
rradius  -2.694989685e-031 2.281638585e-031 139.7480011
rwrist  7.062250077e-031 -3.531125038e-031 -9.530400276
rhand  -7.920061211e-032 -33.2840004 9.303460121
rfingers  -90 -7.125020027 -90
rthumb  -92.93752616 -24.25625642 -97.11982154
rfemur  -14.3671999 13.7468996 9.802829742
rtibia  -0 0 54.50419998
rfoot  -4.447469551e-032 -7.043469906 -4.158420086
rtoes  5.373923086 19.29304026 -105.8922705
lfemur  -28.12599945 7.661900043 -10.7244997
ltibia  -0 0 54.02299881
lfoot  4.453455273e-032 -7.641499996 3.406049967
ltoes  -4.250644065 -19.5611806 -102.515957
231
root  4.281444625 41.07266524 2.726155566 -1.20501709 -59.32800293 -0.1619873047
lowerback  11.58390045 1.892130017 -4.094550133
upperback  2.657079935 1.885390043 -1.36105001
thorax  -3.796780109 0.9334430099 0.6109719872
lowerneck  -5.67828989 4.362969875 -6.752369881
upperneck  13.7524004 5.697400093 6.34882021
head  4.654280186 2.813460112 3.375010014
lclavicle  0 -9.442270133e-015 7.951389973e-016
lhumerus  -0.5519390106 -12.65540028 64.94080353
lradius  2.907157278e-031 -2.004315494e-031 145.4160004
lwrist  -7.062250077e-031 -0 18.50900078
lhand  -1.496451383e-031 -27.76390076 20.11240005
lfingers  90 7.125020027 -90
lthumb  89.89689403 5.08795885 91.16245106
rclavicle  0 -9.442270133e-015 7.951389973e-016
rhumerus  -9.254969597 9.435440063 -74.11889648
rradius  -2.718813594e-031 2.253196991e-031 140.3500061
rwrist  7.062250077e-031 -1.765562519e-031 -9.98470974
rhand  -7.920061211e-032 -33.2840004 9.303460121
rfingers  -90 -7.125020027 -90
rthumb  -92.93752616 -24.25625642 -97.11982154
rfemur  -14.6079998 14.1633997 9.964309692
rtibia  -0 0 54.90969849
rfoot  -4.462113996e-032 -8.429800034 -5.381899834
rtoes  5.373923086 19.29304026 -105.8922705
lfemur  -28.45490074 8.032360077 -11.4744997
ltibia  -0 0 54.42890167
lfoot  8.91098828e-032 -7.834499836 3.658430099
ltoes  -4.250644065 -19.5611806 -102.515957
232
root  4.2492446 41.04511231 2.681088823 -1.645996094 -59.13899994 0.1010131836
lowerback  11.8817997 1.86875999 -4.145299911
upperback  2.719510078 1.832479954 -1.325359941
thorax  -3.895720005 0.90723598 0.677267015
lowerneck  -5.871329784 4.291629791 -6.77862978
upperneck  13.71959972 5.641729832 6.181069851
head  4.686210155 2.778069973 3.330049992
lclavicle  0 -9.442270133e-015 7.951389973e-016
lhumerus  -0.960784018 -13.22459984 65.0298996
lradius  2.904321062e-031 -2.008423065e-031 145.3350067
lwrist  -7.062250077e-031 1.765562519e-031 18.20170021
lhand  -1.496451383e-031 -27.76390076 20.11240005
lfingers  90 7.125020027 -90
lthumb  89.89689403 5.08795885 91.16245106
rclavicle  0 -9.442270133e-015 7.951389973e-016
rhumerus  -8.554610252 9.719809532 -73.73210144
rradius  -2.737710554e-031 2.230198413e-031 140.8329926
rwrist  7.062250077e-031 -1.765562519e-031 -9.975939751
rhand  -7.920061211e-032 -33.2840004 9.303460121
rfingers  -90 -7.125020027 -90
rthumb  -92.93752616 -24.25625642 -97.11982154
rfemur  -14.67249966 14.48670006 10.07970047
rtibia  -0 0 55.17779922
rfoot  -4.480610277e-032 -9.898859978 -6.370019913
rtoes  5.373923086 19.29304026 -105.8922705
lfemur  -28.64590073 8.312299728 -12.27280045
ltibia  -0 0 54.85979843
lfoot  4.456146112e-032 -7.895189762 3.773370028
ltoes  -4.250644065 -19.5611806 -102.515957
233
root  4.209244345 40.99466519 2.638022167 -2.096984863 -58.89299774 0.3079833984
lowerback  12.22599983 1.845919967 -4.252699852
upperback  2.779299974 1.773399949 -1.226699948
thorax  -4.025770187 0.8793299794 0.8412119746
lowerneck  -5.944310188 4.23085022 -6.860209942
upperneck  13.57660007 5.605700016 5.982230186
head  4.662280083 2.74770999 3.2786901
lclavicle  0 -9.442270133e-015 7.951389973e-016
lhumerus  -1.838019967 -13.99800014 65.71880341
lradius  2.896129521e-031 -2.020217274e-031 145.102005
lwrist  -7.062250077e-031 8.827812596e-032 17.29290009
lhand  -1.496451383e-031 -27.76390076 20.11240005
lfingers  90 7.125020027 -90
lthumb  89.89689403 5.08795885 91.16245106
rclavicle  0 -9.442270133e-015 7.951389973e-016
rhumerus  -7.969799995 10.04650021 -73.3443985
rradius  -2.754795276e-031 2.209060213e-031 141.2740021
rwrist  1.412450015e-030 1.765562519e-031 -9.922699928
rhand  -7.920061211e-032 -33.2840004 9.303460121
rfingers  -90 -7.125020027 -90
rthumb  -92.93752616 -24.25625642 -97.11982154
rfemur  -14.5635004 14.79780006 10.2663002
rtibia  -0 0 55.30479813
rfoot  -0 -11.4073 -7.219679832
rtoes  5.373923086 19.29304026 -105.8922705
lfemur  -28.77770042 8.540840149 -13.03549957
ltibia  -0 0 55.32440186
lfoot  4.45442475e-032 -7.733890057 3.694020033
ltoes  -4.250644065 -19.5611806 -102.515957
234
root  4.165377955 40.90377928 2.595888911 -2.263977051 -58.6289978 0.2069702148
lowerback  12.45629978 1.791610003 -4.200500011
upperback  2.86977005 1.70193994 -1.104239941
thorax  -4.056099892 0.8423860073 0.9468320012
lowerneck  -6.175039768 4.176040173 -6.893420219
upperneck  13.50590038 5.573699951 5.843979836
head  4.685959816 2.726500034 3.244940042
lclavicle  0 -9.442270133e-015 7.951389973e-016
lhumerus  -2.916870117 -14.86929989 66.61759949
lradius  2.885227868e-031 -2.035756416e-031 144.7940063
lwrist  -7.062250077e-031 -1.765562519e-031 16.0401001
lhand  -1.496451383e-031 -27.76390076 20.11240005
lfingers  90 7.125020027 -90
lthumb  89.89689403 5.08795885 91.16245106
rclavicle  0 -9.442270133e-015 7.951389973e-016
rhumerus  -7.477039814 10.39340019 -73.05690002
rradius  -2.768352832e-031 2.19204622e-031 141.6269989
rwrist  1.412450015e-030 -0 -9.766209602
rhand  -7.920061211e-032 -33.2840004 9.303460121
rfingers  -90 -7.125020027 -90
rthumb  -92.93752616 -24.25625642 -97.11982154
rfemur  -14.37779999 15.14540005 10.66399956
rtibia  -0 0 55.31639862
rfoot  -0 -12.78339958 -7.961929798
rtoes  5.373923086 19.29304026 -105.8922705
lfemur  -28.96479988 8.767250061 -13.61540031
ltibia  -0 0 55.81840134
lfoot  4.449913774e-032 -7.293759823 3.457149982
ltoes  -4.250644065 -19.5611806 -102.515957
235
root  4.119888816 40.77977759 2.551599938 -2.020996094 -58.36000061 -0.3150024414
lowerback  12.4989996 1.705760002 -3.919539928
upperback  3.041340113 1.631309986 -0.9685829878
thorax  -3.892640114 0.8000479937 0.9440529943
lowerneck  -6.527460098 4.122729778 -6.750249863
upperneck  13.37769985 5.547319889 5.604859829
head  4.720689774 2.712769985 3.153789997
lclavicle  0 -9.442270133e-015 7.951389973e-016
lhumerus  -3.840679884 -15.59549999 67.33439636
lradius  2.874278348e-031 -2.051186977e-031 144.4869995
lwrist  -7.062250077e-031 1.765562519e-031 15.30200005
lhand  -1.496451383e-031 -27.76390076 20.11240005
lfingers  90 7.125020027 -90
lthumb  89.89689403 5.08795885 91.16245106
rclavicle  0 -9.442270133e-015 7.951389973e-016
rhumerus  -6.946579933 10.67339993 -72.79669952
rradius  -2.776787646e-031 2.18135151e-031 141.8480072
rwrist  7.062250077e-031 -0 -9.536149979
rhand  -7.920061211e-032 -33.2840004 9.303460121
rfingers  -90 -7.125020027 -90
rthumb  -92.93752616 -24.25625642 -97.11982154
rfemur  -14.16740036 15.53499985 11.3277998
rtibia  -0 0 55.17670059
rfoot  -0 -13.64649963 -8.557939529
rtoes  5.373923086 19.29304026 -105.8922705
lfemur  -29.26000023 9.026229858 -13.93799973
ltibia  -0 0 56.34590149
lfoot  4.442327919e-032 -6.484680176 3.109719992
ltoes  -4.250644065 -19.5611806 -102.515957
236
root  4.062466734 40.63733319 2.507244508 -1.747009277 -58.04299927 -0.8319702148
lowerback  12.47290039 1.608319998 -3.65489006
upperback  3.186490059 1.545539975 -0.8453310132
thorax  -3.719079971 0.7513340116 0.9406099916
lowerneck  -6.822810173 4.090720177 -6.575099945
upperneck  13.24230003 5.542449951 5.352310181
head  4.743299961 2.709209919 3.052439928
lclavicle  0 -9.442270133e-015 7.951389973e-016
lhumerus  -4.846189976 -16.19829941 68.07489777
lradius  2.86313843e-031 -2.066708099e-031 144.177002
lwrist  -7.062250077e-031 -0 15.14070034
lhand  -1.496451383e-031 -27.76390076 20.11240005
lfingers  90 7.125020027 -90
lthumb  89.89689403 5.08795885 91.16245106
rclavicle  0 -9.442270133e-015 7.951389973e-016
rhumerus  -6.58409977 10.88409996 -72.54129791
rradius  -2.784271013e-031 2.171791648e-031 142.0449982
rwrist  7.062250077e-031 -0 -9.515199661
rhand  -7.920061211e-032 -33.2840004 9.303460121
rfingers  -90 -7.125020027 -90
rthumb  -92.93752616 -24.25625642 -97.11982154
rfemur  -13.90200043 15.99709988 12.01099968
rtibia  -0 0 54.84909821
rfoot  -0 -13.68330002 -9.097220421
rtoes  5.373923086 19.29304026 -105.8922705
lfemur  -29.52910042 9.184940338 -14.23159981
ltibia  -0 0 56.87919998
lfoot  4.43466356e-032 -5.545770168 2.646150112
ltoes  -4.250644065 -19.5611806 -102.515957
237
root  3.993110957 40.47489016 2.469888822 -1.439025879 -57.70800018 -1.398986816
lowerback  12.45549965 1.49842 -3.326819897
upperback  3.277539968 1.450539947 -0.708976984
thorax  -3.60593009 0.7000929713 0.9150599837
lowerneck  -7.107349873 4.064420223 -6.540299892
upperneck  13.1850996 5.536769867 5.26515007
head  4.778299809 2.707279921 3.026420116
lclavicle  0 -9.442270133e-015 7.951389973e-016
lhumerus  -6.064139843 -16.7215004 69.09339905
lradius  2.848494495e-031 -2.086845263e-031 143.772995
lwrist  -1.412450015e-030 -0 15.02569962
lhand  -1.496451383e-031 -27.76390076 20.11240005
lfingers  90 7.125020027 -90
lthumb  89.89689403 5.08795885 91.16245106
rclavicle  0 -9.442270133e-015 7.951389973e-016
rhumerus  -6.506529808 11.20460033 -72.3934021
rradius  -2.789947548e-031 2.164494564e-031 142.1950073
rwrist  1.412450015e-030 -0 -9.442440033
rhand  -7.920061211e-032 -33.2840004 9.303460121
rfingers  -90 -7.125020027 -90
rthumb  -92.93752616 -24.25625642 -97.11982154
rfemur  -13.53009987 16.48600006 12.72309971
rtibia  -0 0 54.33369827
rfoot  -0 -13.33920002 -9.593850136
rtoes  5.373923086 19.29304026 -105.8922705
lfemur  -29.7173996 9.360520363 -14.46619987
ltibia  -0 0 57.40890121
lfoot  4.428154927e-032 -4.597579956 1.930789948
ltoes  -4.250644065 -19.5611806 -102.515957
